<?xml version="1.0" encoding="utf-8"?>
<!-- Generator: Adobe Illustrator 17.0.0, SVG Export Plug-In . SVG Version: 6.00 Build 0)  -->
<!DOCTYPE svg PUBLIC "-//W3C//DTD SVG 1.1//EN" "http://www.w3.org/Graphics/SVG/1.1/DTD/svg11.dtd">
<svg version="1.1" id="Layer_1" xmlns="http://www.w3.org/2000/svg" xmlns:xlink="http://www.w3.org/1999/xlink" x="0px" y="0px"
	 width="70px" height="70px" viewBox="0 0 500 500" enable-background="new 0 0 500 500" xml:space="preserve">
<polyline fill="none" stroke="#00826A" stroke-width="8" stroke-miterlimit="10" points="155.465,207.901 177.678,231.283
	213.92,184.519 "/>
<polyline fill="none" stroke="#00826A" stroke-width="8" stroke-miterlimit="10" points="155.465,282.724 177.678,306.106
	213.92,259.342 "/>
<polyline fill="none" stroke="#00826A" stroke-width="8" stroke-miterlimit="10" points="155.465,357.546 177.678,380.928
	213.92,334.164 "/>
<polyline fill="none" stroke="#00826A" stroke-width="8" stroke-miterlimit="10" points="108.701,96.837 85.319,96.837
	85.319,449.905 386.947,449.905 386.947,410.156 "/>
<polyline fill="none" stroke="#00826A" stroke-width="8" stroke-miterlimit="10" points="364.734,96.837 386.947,96.837
	386.947,189.196 "/>
<path fill="none" stroke="#00826A" stroke-width="8" stroke-miterlimit="10" d="M109.87,61.764H61.937
	c0,0-16.367,2.338-16.367,23.382v378.788c0,0,4.676,31.566,31.566,31.566h328.517c0,0,24.551-2.338,24.551-36.242V430.03"/>
<path fill="none" stroke="#00826A" stroke-width="8" stroke-miterlimit="10" d="M368.241,60.595h37.411
	c0,0,21.044-2.338,21.044,25.72v125.094"/>
<circle fill="none" stroke="#00826A" stroke-width="8" stroke-miterlimit="10" cx="365.903" cy="307.275" r="75.992"/>
<line fill="none" stroke="#00826A" stroke-width="8" stroke-miterlimit="10" x1="412.667" y1="368.068" x2="479.306" y2="435.876"/>
<path fill="none" stroke="#00826A" stroke-width="8" stroke-miterlimit="10" d="M248.993,51.242c0,5.811-4.711,10.522-10.522,10.522
	l0,0c-5.811,0-10.522-4.711-10.522-10.522l0,0c0-5.811,4.711-10.522,10.522-10.522l0,0C244.282,40.72,248.993,45.431,248.993,51.242
	L248.993,51.242z"/>
<path fill="none" stroke="#00826A" stroke-width="8" stroke-miterlimit="10" d="M320.893,50.073h-41.503l-1.057,0.023
	c0.183-1.561,0.473-3.089,0.473-4.699c0-22.276-18.057-40.334-40.334-40.334s-40.334,18.058-40.334,40.334
	c0,2.185,0.308,4.288,0.644,6.38l-2.398,0.05h-46.179c-18.121,0-18.121,18.121-18.121,18.121v40.919h209.269V67.609
	C341.352,67.609,344.859,50.073,320.893,50.073z"/>
</svg>
